<svg width="654" height="338" viewBox="0 0 654 338" fill="none" xmlns="http://www.w3.org/2000/svg">
<path d="M6 211.053C8.83056 213.635 11.8267 216.3 15.5983 217.354C23.2168 219.65 32.3634 214.794 34.012 206.814C35.8865 199.008 30.4061 192.451 27.4174 185.517C23.3221 176.95 24.7299 166.042 31.6633 159.387C38.3407 152.514 49.5726 150.76 57.1609 157.008C67.753 165.455 66.2925 180.759 63.8233 192.676C59.2387 214.681 50.0017 237.958 57.3642 260.362C62.0918 275.049 81.8456 283.014 94.5455 273.302C108.299 262.838 115.112 240.337 112.553 223.542C110.031 205 101.11 193.828 90.676 179.299C84.0061 169.746 78.2471 156.353 85.4967 145.656C87.1152 142.991 94.5379 136.539 95.08 140.913C95.2305 143.307 94.5229 146.349 95.2531 148.855C96.307 153.003 100.643 155.796 104.979 155.563C110.181 155.563 114.397 150.308 112.44 145.272C111.672 142.976 109.76 140.906 108.36 139.385C107.93 138.896 107.742 138.572 107.885 138.354C109.639 137.526 112.462 137.729 114.57 137.307C119.411 136.713 124.447 135.463 129.348 135.373C131.463 135.335 134.068 135.373 135.988 135.884C139.722 136.923 128.821 140.702 130.244 148.005C130.823 153.32 136.296 157.37 141.528 156.715C145.812 156.368 148.71 152.544 152.677 151.656C154.168 151.392 155.681 151.784 157.096 152.311C160.333 153.651 165.144 155.811 169.284 155.962C182.481 157.099 194.519 149.638 202.641 139.566C208.875 131.895 215.755 119.676 209.251 110.394C205.148 105.223 197.56 106.977 193.675 111.636C184.86 122.176 185.229 137.292 187.721 150.143C188.504 152.793 190.491 166.87 192.9 166.96C193.555 166.825 194.029 166.147 194.466 165.605C195.768 163.897 197.56 160.501 200.052 157.844C204.441 153.177 210.531 149.834 216.817 149.337C229.946 148.306 236.962 159.508 229.983 170.913C224.036 180.729 214.619 188.062 207.399 196.922C194.488 212.197 184.973 231.408 183.234 251.516C182.443 264.449 187.495 277.488 196.386 286.83C207.309 298.01 223.968 302.767 239.326 301.819C262.332 298.958 285.232 281.937 290.931 258.856C293.543 247.985 292.158 235.85 286.038 226.395C278.653 214.945 265.26 207.379 251.521 207.943C240.816 208.388 228.327 212.219 223.283 222.443C217.848 234.819 229.095 245.388 241.682 243.514C246.508 243.047 250.633 240.472 254.352 237.551" stroke="black" stroke-width="12" stroke-linecap="round" stroke-linejoin="round"/>
<path d="M150.096 104.98C137.825 97.6098 138.645 86.6715 144.871 74.9276C152.633 59.6381 171.874 54.7599 187.676 58.7272C199.247 61.6707 210.004 67.1737 220.566 72.6541C238.596 82.3052 256.566 92.1745 275.333 100.418C293.634 107.773 312.1 115.865 331.854 118.177C342.8 119.434 353.859 119.885 364.865 119.246C388.691 117.205 411.908 108.623 431.985 95.7052C443.518 88.6438 454.554 80.0242 461.375 68.1373C475.603 43.7463 468.233 20.0629 441.335 9.96017C421.717 2.4923 399.133 6.5123 380.237 14.3716C351.307 27.6512 330.943 58.2529 327.495 89.5999C323.995 114.894 333.036 139.963 346.353 161.154C359.414 183.317 376.97 202.815 389.158 225.474C392.982 232.589 395.971 240.124 398.146 247.901C400.661 256.874 402.701 265.976 402.678 275.318C402.739 297.985 390.28 323.392 367.612 329.904C343.846 336.025 328.911 319.892 319.643 299.829C307.011 272.472 306.53 241.08 317.355 212.963C318.311 210.471 319.32 208.009 320.351 205.578C330.793 182.037 350.81 161.757 376.104 155.034C386.899 151.631 398.636 149.93 409.732 152.73C412.826 153.656 416.635 154.093 419.082 155.862C420.58 157.684 408.595 159.22 411.298 168.811C413.045 174.321 419.842 176.429 424.992 174.547C428.733 173.365 431.744 170.422 434.462 168.517C439.092 164.956 442.66 170.384 448.035 170.595C450.331 170.738 452.808 169.774 454.886 168.848C463.362 164.407 464.055 169.458 472.133 168.969C475.942 168.419 479.585 166.484 483.477 166.65C488.461 166.823 493.369 169.488 498.466 168.645C503.148 168.005 507.748 165.438 512.423 163.669C517.858 161.516 522.119 160.439 527.983 160.221C534.013 159.957 539.938 160.989 545.81 161.215C550.056 161.433 554.332 161.395 558.585 161.215C565.887 160.846 573.28 161.328 580.627 161.147C599.222 161.192 617.372 159.521 632.293 147.152C642.32 139.044 653.477 122.468 643.141 110.814C636.268 104.099 626.368 108.39 622.175 115.82C621.332 117.145 620.722 118.312 620.293 119.072C619.706 120.104 619.427 120.39 619.156 119.772C617.643 113.554 615.573 107.298 609.603 102.797C599.929 94.734 583.496 97.1957 576.555 107.449C571.692 114.337 573.416 123.988 578.888 130.018C581.207 132.676 584.143 134.806 587.034 136.921" stroke="black" stroke-width="12" stroke-linecap="round" stroke-linejoin="round"/>
</svg>
