<svg width="104" height="112" viewBox="0 0 104 112" fill="none" xmlns="http://www.w3.org/2000/svg">
<rect width="104" height="112" fill="white"/>
<rect x="48" y="64" width="8" height="8" fill="#181818"/>
<rect x="56" y="72" width="8" height="8" fill="white"/>
<rect x="56" y="80" width="8" height="8" fill="#FFD0B8"/>
<rect x="64" y="80" width="8" height="8" fill="#FFD0B8"/>
<rect x="72" y="80" width="8" height="8" fill="#FFD0B8"/>
<rect x="72" y="72" width="8" height="8" fill="#FFD0B8"/>
<rect x="80" y="64" width="8" height="8" fill="#181818"/>
<rect x="80" y="56" width="8" height="8" fill="#FFD0B8"/>
<rect x="88" y="56" width="8" height="8" fill="#41352F"/>
<rect x="88" y="48" width="8" height="8" fill="#41352F"/>
<rect x="80" y="40" width="8" height="8" fill="#41352F"/>
<rect x="80" y="48" width="8" height="8" fill="#41352F"/>
<rect x="64" y="40" width="8" height="8" fill="#41352F"/>
<rect x="64" y="48" width="8" height="8" fill="#41352F"/>
<rect x="56" y="40" width="8" height="8" fill="#41352F"/>
<rect x="56" y="48" width="8" height="8" fill="#41352F"/>
<rect x="48" y="40" width="8" height="8" fill="#41352F"/>
<rect x="48" y="48" width="8" height="8" fill="#41352F"/>
<rect x="40" y="48" width="8" height="8" fill="#41352F"/>
<rect x="25" y="48" width="8" height="8" fill="#41352F"/>
<rect x="40" y="56" width="8" height="8" fill="#41352F"/>
<rect x="72" y="48" width="8" height="8" fill="#41352F"/>
<rect x="80" y="96" width="8" height="8" fill="#181818"/>
<rect x="40" y="96" width="8" height="8" fill="#181818"/>
<rect x="64" y="96" width="8" height="8" fill="#181818"/>
<rect x="56" y="96" width="8" height="8" fill="#555555"/>
<rect x="48" y="96" width="8" height="8" fill="#181818"/>
<rect x="72" y="96" width="8" height="8" fill="#181818"/>
<rect x="64" y="104" width="8" height="8" fill="#FF9FB9"/>
<rect x="16" y="104" width="8" height="8" fill="#FF9FB9" fill-opacity="0.3"/>
<rect x="32" y="96" width="8" height="8" fill="#555555"/>
<rect x="32" y="104" width="8" height="8" fill="#FF9FB9"/>
<rect x="24" y="104" width="8" height="8" fill="#FF9FB9"/>
<rect x="56" y="104" width="8" height="8" fill="#FF9FB9"/>
<rect x="88" y="64" width="8" height="8" fill="#786155"/>
<rect x="88" y="56" width="8" height="8" fill="#786155"/>
<rect x="72" y="40" width="8" height="8" fill="#786155"/>
<rect x="40" y="40" width="8" height="8" fill="#786155"/>
<rect x="32" y="56" width="8" height="8" fill="#786155"/>
<rect x="17" y="56" width="8" height="8" fill="#786155"/>
<rect x="32" y="48" width="8" height="8" fill="#786155"/>
<rect x="32" y="56" width="8" height="8" fill="#41352F"/>
<rect x="24" y="56" width="8" height="8" fill="#41352F"/>
<rect x="24" y="64" width="8" height="8" fill="#41352F"/>
<rect x="40" y="56" width="8" height="8" fill="#41352F"/>
<rect x="80" y="72" width="8" height="8" fill="#FF9FB9"/>
<rect x="80" y="80" width="8" height="8" fill="#FFD0B8"/>
<rect x="48" y="72" width="8" height="8" fill="#FFD0B8"/>
<rect x="40" y="64" width="8" height="8" fill="#FFD0B8"/>
<rect x="40" y="80" width="8" height="8" fill="#FFD0B8"/>
<rect x="40" y="72" width="8" height="8" fill="#FF9FB9"/>
<rect x="32" y="80" width="8" height="8" fill="#786155"/>
<rect x="32" y="64" width="8" height="8" fill="#FFD0B8"/>
<rect x="32" y="72" width="8" height="8" fill="#FFD0B8"/>
<rect x="72" y="72" width="8" height="8" fill="white"/>
<rect x="48" y="80" width="8" height="8" fill="#FFD0B8"/>
<rect x="32" y="88" width="8" height="8" fill="#FFD0B8"/>
<rect x="24" y="88" width="8" height="8" fill="#FFD0B8"/>
<rect x="72" y="56" width="8" height="8" fill="#FFD0B8"/>
<rect x="72" y="64" width="8" height="8" fill="#FFD0B8"/>
<rect x="64" y="56" width="8" height="8" fill="#FFD0B8"/>
<rect x="64" y="64" width="8" height="8" fill="#FFD0B8"/>
<rect x="64" y="72" width="8" height="8" fill="white"/>
<rect x="56" y="56" width="8" height="8" fill="#FFD0B8"/>
<rect x="48" y="56" width="8" height="8" fill="#FFD0B8"/>
<rect x="64" y="56" width="8" height="8" fill="#FFD0B8"/>
<rect x="56" y="56" width="8" height="8" fill="#FFD0B8"/>
<rect x="80" y="56" width="8" height="8" fill="#FFD0B8"/>
<rect x="72" y="56" width="8" height="8" fill="#FFD0B8"/>
<rect x="48" y="56" width="8" height="8" fill="#FFD0B8"/>
<rect x="56" y="64" width="8" height="8" fill="#FFD0B8"/>
<rect x="72" y="56" width="8" height="8" fill="#786155"/>
<rect x="8" y="64" width="8" height="8" fill="#FFEEE5"/>
<rect x="40" y="88" width="8" height="8" fill="#FFD0B8"/>
<rect x="48" y="88" width="8" height="8" fill="#93CEFF"/>
<rect x="56" y="88" width="8" height="8" fill="#93CEFF"/>
<rect x="64" y="88" width="8" height="8" fill="#FFD0B8"/>
<rect x="72" y="88" width="8" height="8" fill="#93CEFF"/>
<rect x="80" y="88" width="8" height="8" fill="#93CEFF"/>
</svg>
